<?xml version="1.0" encoding="utf-8"?>
<!-- Generator: Adobe Illustrator 23.0.2, SVG Export Plug-In . SVG Version: 6.00 Build 0)  -->
<svg version="1.1" id="Layer_1" xmlns="http://www.w3.org/2000/svg" xmlns:xlink="http://www.w3.org/1999/xlink" x="0px" y="0px"
	 viewBox="0 0 489.5 83.4" style="enable-background:new 0 0 489.5 83.4;" xml:space="preserve">
<style type="text/css">
	.st0{fill:#FFB03A;}
	.st1{fill:url(#SVGID_1_);}
	.st2{fill:url(#SVGID_2_);}
	.st3{fill:url(#SVGID_3_);}
	.st4{fill:url(#SVGID_4_);}
	.st5{fill:url(#SVGID_5_);}
	.st6{fill:url(#SVGID_6_);}
	.st7{fill:url(#SVGID_7_);}
	.st8{fill:url(#SVGID_8_);}
	.st9{fill:url(#SVGID_9_);}
	.st10{fill:url(#SVGID_10_);}
	.st11{fill:url(#SVGID_11_);}
	.st12{fill:#06A6A6;}
	.st13{fill:url(#SVGID_12_);}
</style>
<g>
	<g id="P">
		<path class="st0" d="M23.5,62h-9v14.2c0,4-3.2,7.2-7.2,7.2H0V30.8c0-4,3.2-7.2,7.2-7.2h16.4c14.7,0,22,8.3,22,19.3
			C45.5,52.8,38.7,62,23.5,62z M22.4,50.4c5.8,0,8.3-2.9,8.3-7.5s-2.5-7.5-8.3-7.5h-7.9v15H22.4z"/>
		
			<linearGradient id="SVGID_1_" gradientUnits="userSpaceOnUse" x1="32.3127" y1="580.2402" x2="5.6428" y2="564.4159" gradientTransform="matrix(1 0 0 1 0 -531.8333)">
			<stop  offset="0" style="stop-color:#FFB03A"/>
			<stop  offset="0.1594" style="stop-color:#F9A837"/>
			<stop  offset="0.4013" style="stop-color:#E89331"/>
			<stop  offset="0.694" style="stop-color:#CD7125"/>
			<stop  offset="0.9418" style="stop-color:#B14F1A"/>
		</linearGradient>
		<path class="st1" d="M23.5,23.6h-1.8c-4,0-7.3,3.3-7.3,7.3v4.5h7.9c5.8,0,8.3,2.9,8.3,7.5s-2.5,7.5-8.3,7.5h-7.9V62h9
			c15.2,0,22-9.2,22-19.1C45.5,31.9,38.1,23.6,23.5,23.6z"/>
	</g>
	<g id="L">
		<path class="st0" d="M64.6,23.6v48.6h19.1v4c0,4-3.2,7.2-7.2,7.2H50.1V30.8c0-4,3.2-7.2,7.2-7.2H64.6z"/>
		
			<linearGradient id="SVGID_2_" gradientUnits="userSpaceOnUse" x1="79.5368" y1="612.1721" x2="60.8267" y2="603.1531" gradientTransform="matrix(1 0 0 1 0 -531.8333)">
			<stop  offset="0" style="stop-color:#FFB03A"/>
			<stop  offset="0.1594" style="stop-color:#F9A837"/>
			<stop  offset="0.4013" style="stop-color:#E89331"/>
			<stop  offset="0.694" style="stop-color:#CD7125"/>
			<stop  offset="0.9418" style="stop-color:#B14F1A"/>
		</linearGradient>
		<path class="st2" d="M64.6,83.3h11.9c4,0,7.2-3.2,7.2-7.2v-4H64.6V83.3L64.6,83.3z"/>
	</g>
	<path class="st0" d="M127.9,72.8h-22.3l-1.9,5.7c-1,2.9-3.7,4.9-6.8,4.9H86.8l18.8-51.9c1.7-4.8,6.2-7.9,11.3-7.9l0,0
		c5.1,0,9.6,3.2,11.3,7.9l15.2,42.1c1.7,4.7-1.8,9.7-6.8,9.7h-5.1L127.9,72.8z M116.8,39.6l-7.3,21.9h14.7L116.8,39.6z"/>
	
		<linearGradient id="SVGID_3_" gradientUnits="userSpaceOnUse" x1="134.0868" y1="596.7447" x2="104.5687" y2="577.2739" gradientTransform="matrix(1 0 0 1 0 -531.8333)">
		<stop  offset="0" style="stop-color:#FFB03A"/>
		<stop  offset="0.1594" style="stop-color:#F9A837"/>
		<stop  offset="0.4013" style="stop-color:#E89331"/>
		<stop  offset="0.694" style="stop-color:#CD7125"/>
		<stop  offset="0.9418" style="stop-color:#B14F1A"/>
	</linearGradient>
	<path class="st3" d="M136.6,83.3h-5.1l-3.6-10.6h-22.3l3.8-11.2h14.7l-7.4-21.8l0.7-2.2l0.7-1.2c2.8-5,10.1-4.4,12,0.9l13.1,36.3
		C145.1,78.3,141.6,83.3,136.6,83.3z"/>
	<g id="T">
		<path class="st0" d="M143.5,23.5h39V28c0,3.9-3.2,7.1-7.1,7.1h-8.7V76c0,4-3.3,7.3-7.3,7.3h-7.3V35.2h-15.8v-4.5
			C136.3,26.8,139.5,23.5,143.5,23.5z"/>
		
			<linearGradient id="SVGID_4_" gradientUnits="userSpaceOnUse" x1="141.8513" y1="560.636" x2="157.2211" y2="564.4933" gradientTransform="matrix(1 0 0 1 0 -531.8333)">
			<stop  offset="0" style="stop-color:#FFB03A"/>
			<stop  offset="0.1594" style="stop-color:#F9A837"/>
			<stop  offset="0.4013" style="stop-color:#E89331"/>
			<stop  offset="0.694" style="stop-color:#CD7125"/>
			<stop  offset="0.9418" style="stop-color:#B14F1A"/>
		</linearGradient>
		<path class="st4" d="M143.5,23.5c-4,0-7.2,3.2-7.2,7.2v4.5h15.8V23.5H143.5z"/>
		
			<linearGradient id="SVGID_5_" gradientUnits="userSpaceOnUse" x1="177.8315" y1="562.9733" x2="163.803" y2="555.6027" gradientTransform="matrix(1 0 0 1 0 -531.8333)">
			<stop  offset="0" style="stop-color:#FFB03A"/>
			<stop  offset="0.1594" style="stop-color:#F9A837"/>
			<stop  offset="0.4013" style="stop-color:#E89331"/>
			<stop  offset="0.694" style="stop-color:#CD7125"/>
			<stop  offset="0.9418" style="stop-color:#B14F1A"/>
		</linearGradient>
		<path class="st5" d="M166.7,35.2h8.7c3.9,0,7.1-3.2,7.1-7.1v-4.5h-15.8V35.2z"/>
	</g>
	<g id="F">
		<path class="st0" d="M194.1,23.6h31.7v4.6c0,3.9-3.2,7.1-7.1,7.1h-17.3v12.6h18.2V52c0,4-3.2,7.2-7.2,7.2h-11v17
			c0,4-3.2,7.2-7.2,7.2h-7.3V30.8C186.9,26.9,190.2,23.6,194.1,23.6z"/>
		
			<linearGradient id="SVGID_6_" gradientUnits="userSpaceOnUse" x1="213.188" y1="586.4626" x2="196.0459" y2="580.2552" gradientTransform="matrix(1 0 0 1 0 -531.8333)">
			<stop  offset="0" style="stop-color:#FFB03A"/>
			<stop  offset="0.1594" style="stop-color:#F9A837"/>
			<stop  offset="0.4013" style="stop-color:#E89331"/>
			<stop  offset="0.694" style="stop-color:#CD7125"/>
			<stop  offset="0.9418" style="stop-color:#B14F1A"/>
		</linearGradient>
		<path class="st6" d="M201.5,59.3h11c4,0,7.2-3.2,7.2-7.2V48h-18.2V59.3z"/>
		
			<linearGradient id="SVGID_7_" gradientUnits="userSpaceOnUse" x1="219.606" y1="563.9321" x2="199.3994" y2="555.0136" gradientTransform="matrix(1 0 0 1 0 -531.8333)">
			<stop  offset="0" style="stop-color:#FFB03A"/>
			<stop  offset="0.1594" style="stop-color:#F9A837"/>
			<stop  offset="0.4013" style="stop-color:#E89331"/>
			<stop  offset="0.694" style="stop-color:#CD7125"/>
			<stop  offset="0.9418" style="stop-color:#B14F1A"/>
		</linearGradient>
		<path class="st7" d="M201.5,35.3h17.3c3.9,0,7.1-3.2,7.1-7.1v-4.6h-17.1c-4,0-7.3,3.3-7.3,7.3V35.3z"/>
	</g>
	<g id="O">
		<path class="st0" d="M254.6,83.4c-17,0-30.8-12.7-30.8-30.7s13.8-30.6,30.8-30.6s30.6,12.6,30.6,30.6S271.6,83.4,254.6,83.4z
			 M254.6,70.2c9.5,0,15.8-6.9,15.8-17.4c0-10.6-6.2-17.4-15.8-17.4c-9.7,0-15.8,6.7-15.8,17.4C238.8,63.3,244.9,70.2,254.6,70.2z"
			/>
		
			<linearGradient id="SVGID_8_" gradientUnits="userSpaceOnUse" x1="270.4756" y1="592.2513" x2="235.032" y2="567.5071" gradientTransform="matrix(1 0 0 1 0 -531.8333)">
			<stop  offset="0.1437" style="stop-color:#FFB03A"/>
			<stop  offset="0.2787" style="stop-color:#F9A837"/>
			<stop  offset="0.4837" style="stop-color:#E89331"/>
			<stop  offset="0.7318" style="stop-color:#CD7125"/>
			<stop  offset="0.9418" style="stop-color:#B14F1A"/>
		</linearGradient>
		<path class="st8" d="M254.6,22.2L254.6,22.2c3.6,0,6.6,3,6.6,6.6s-3,6.6-6.6,6.6l0,0l0,0h0.1c9.5,0,15.8,6.7,15.8,17.4
			c0,10.5-6.2,17.4-15.8,17.4h-0.1v13.3h0.1c17,0,30.6-12.7,30.6-30.7S271.7,22.2,254.6,22.2z"/>
	</g>
	<g id="R">
		<path class="st0" d="M314.6,23.6c14.7,0,22,8.4,22,18.8c0,7.5-4.1,14.6-13.3,17.3l7.5,12.8c2.8,4.8-0.7,10.9-6.3,10.9h-3.8
			l-12.4-22.6h-3.5v15.3c0,4-3.3,7.3-7.3,7.3h-7.3V30.9c0-4,3.3-7.3,7.3-7.3H314.6L314.6,23.6z M313.8,35.7h-9v14.8h9
			c5.5,0,8-2.8,8-7.5C321.8,38.6,319.2,35.7,313.8,35.7z"/>
		
			<linearGradient id="SVGID_9_" gradientUnits="userSpaceOnUse" x1="334.6281" y1="592.6791" x2="289.8926" y2="567.7077" gradientTransform="matrix(1 0 0 1 0 -531.8333)">
			<stop  offset="0.1437" style="stop-color:#FFB03A"/>
			<stop  offset="0.2787" style="stop-color:#F9A837"/>
			<stop  offset="0.4837" style="stop-color:#E89331"/>
			<stop  offset="0.7318" style="stop-color:#CD7125"/>
			<stop  offset="0.9418" style="stop-color:#B14F1A"/>
		</linearGradient>
		<path class="st9" d="M336.7,42.4c0-10.4-7.3-18.8-22-18.8h-2.5c-4.1,0-7.4,3.3-7.4,7.4v4.7h9c5.5,0,8,2.9,8,7.3
			c0,4.7-2.6,7.5-8,7.5h-9v10.3h3.5l12.4,22.6h3.8c5.6,0,9.1-6.1,6.3-10.9l-7.5-12.8C332.6,56.9,336.7,49.9,336.7,42.4z"/>
	</g>
</g>
<linearGradient id="SVGID_10_" gradientUnits="userSpaceOnUse" x1="423.4579" y1="558.5691" x2="491.5799" y2="612.5908" gradientTransform="matrix(1 0 0 1 0 -531.8333)">
	<stop  offset="8.980469e-02" style="stop-color:#1D597F"/>
	<stop  offset="0.5026" style="stop-color:#06A6A6"/>
	<stop  offset="0.5919" style="stop-color:#07A0A2"/>
	<stop  offset="0.7079" style="stop-color:#099097"/>
	<stop  offset="0.8387" style="stop-color:#0C7584"/>
	<stop  offset="0.9795" style="stop-color:#11506A"/>
	<stop  offset="1" style="stop-color:#124A66"/>
</linearGradient>
<polygon class="st10" points="425.2,29.4 432.9,21.7 486.8,75.6 479.1,83.3 "/>
<linearGradient id="SVGID_11_" gradientUnits="userSpaceOnUse" x1="380.0579" y1="558.5691" x2="448.1798" y2="612.5908" gradientTransform="matrix(1 0 0 1 0 -531.8333)">
	<stop  offset="8.980469e-02" style="stop-color:#1D597F"/>
	<stop  offset="0.5026" style="stop-color:#06A6A6"/>
	<stop  offset="0.5919" style="stop-color:#07A0A2"/>
	<stop  offset="0.7079" style="stop-color:#099097"/>
	<stop  offset="0.8387" style="stop-color:#0C7584"/>
	<stop  offset="0.9795" style="stop-color:#11506A"/>
	<stop  offset="1" style="stop-color:#124A66"/>
</linearGradient>
<polygon class="st11" points="381.8,29.4 389.5,21.7 443.4,75.6 435.7,83.3 "/>
<path class="st12" d="M411.2,12.4"/>
<linearGradient id="SVGID_12_" gradientUnits="userSpaceOnUse" x1="428.5442" y1="625.0704" x2="387.9917" y2="583.6105" gradientTransform="matrix(1 0 0 1 0 -531.8333)">
	<stop  offset="0" style="stop-color:#06A6A6"/>
	<stop  offset="1" style="stop-color:#124A66"/>
</linearGradient>
<polygon class="st13" points="443.4,75.6 414.5,46.7 406.8,54.4 424.8,72.4 386.8,72.4 386.8,83.3 435.7,83.3 435.7,83.3 
	435.7,83.3 "/>
<rect x="400.2" y="4.6" transform="matrix(0.7071 -0.7071 0.7071 0.7071 109.4076 295.3311)" class="st12" width="22.1" height="22.1"/>
<rect x="328.3" y="47.2" transform="matrix(0.7071 -0.7071 0.7071 0.7071 70.1063 274.494)" class="st12" width="76.2" height="10.9"/>
<rect x="371.7" y="47.2" transform="matrix(0.7071 -0.7071 0.7071 0.7071 82.8294 305.2003)" class="st12" width="76.2" height="10.9"/>
<rect x="420.6" y="47.2" transform="matrix(0.7071 -0.7071 0.7071 0.7071 97.1352 339.7376)" class="st12" width="76.2" height="10.9"/>
</svg>
